<?xml version="1.0" encoding="utf-8"?>
<svg xmlns="http://www.w3.org/2000/svg" xmlns:xlink="http://www.w3.org/1999/xlink">
    <!--
        MPP MES - Material Symbols Outlined custom icon library
        Lock date: 2026-05-04 (per mockup/icons.csv)
        Style: Outlined - Weight 300 - Fill 0 - Grade -25 - Optical size 48px source grid
        ViewBox normalized to 0 0 24 24 via path transform translate(0 24) scale(0.025).
        No fill on path - Perspective drives color via the icon color prop / Style Class.
        Source: https://github.com/google/material-design-icons/blob/master/symbols/web/<name>/materialsymbolsoutlined/<name>_wght300gradN25_48px.svg
    -->

    <!-- ===== Navigation ===== -->

    <!-- home - Home -->
    <svg viewBox="0 0 24 24" id="home">
        <path transform="translate(0 24) scale(0.025)" d="M226.62-186.62h154.53V-431.5h197.7v244.88h154.53V-567L480-758 226.62-567.36v380.74Zm-43.85 43.85v-446.5L480-812.69l297.23 223.82v446.1H535v-244.88H425v244.88H182.77ZM480-472.62Z"/>
    </svg>

    <!-- play_arrow - Forward / play (mockup key: forward) -->
    <svg viewBox="0 0 24 24" id="play_arrow">
        <path transform="translate(0 24) scale(0.025)" d="M342.16-241.77v-480.92l377.53 240.46-377.53 240.46ZM386-482.23Zm0 160.38 253.08-160.38L386-642.61v320.76Z"/>
    </svg>

    <!-- arrow_right_alt - Flow / next (mockup key: flow) -->
    <svg viewBox="0 0 24 24" id="arrow_right_alt">
        <path transform="translate(0 24) scale(0.025)" d="m552.61-257.31-31.38-30.88 171.85-171.85h-510v-43.84h510L520.62-676.35 552-706.54l224.92 224.92-224.31 224.31Z"/>
    </svg>

    <!-- expand_less - Sort ascending (mockup key: sort-up) -->
    <svg viewBox="0 0 24 24" id="expand_less">
        <path transform="translate(0 24) scale(0.025)" d="m287.38-359.69-31.69-31.69L480-615.69 704.31-392l-31.69 31.69L480-552.92 287.38-359.69Z"/>
    </svg>

    <!-- expand_more - Sort descending (mockup key: sort-down) -->
    <svg viewBox="0 0 24 24" id="expand_more">
        <path transform="translate(0 24) scale(0.025)" d="M480-359.69 255.69-584l31.69-31.69L480-422.46l192.62-192.62 31.69 31.7L480-359.69Z"/>
    </svg>


    <!-- ===== Actions ===== -->

    <!-- check_circle - Confirm / success (mockup key: check) -->
    <svg viewBox="0 0 24 24" id="check_circle">
        <path transform="translate(0 24) scale(0.025)" d="m421.31-313 267.38-267.38-33.92-33.31-233.46 233.84-117.85-117.84-32.92 33.31L421.31-313Zm58.85 209.92q-77.6 0-146.33-29.82-68.72-29.83-119.96-81.1-51.23-51.27-81.01-119.8-29.78-68.53-29.78-146.04 0-78.22 29.82-147.13 29.83-68.92 81.1-119.91 51.27-50.98 119.8-80.51 68.53-29.53 146.04-29.53 78.22 0 147.14 29.69 68.92 29.69 119.9 80.6 50.98 50.9 80.51 119.62 29.53 68.72 29.53 146.85 0 77.6-29.57 146.33-29.58 68.72-80.6 119.96-51.02 51.23-119.74 81.01-68.72 29.78-146.85 29.78Zm-.21-43.84q138.63 0 235.88-97.52 97.25-97.51 97.25-235.51 0-138.63-97.21-235.88-97.2-97.25-235.82-97.25-138.01 0-235.57 97.21-97.56 97.2-97.56 235.82 0 138.01 97.52 235.57 97.51 97.56 235.51 97.56ZM480-480Z"/>
    </svg>

    <!-- cancel - Close / dismiss / reject (mockup keys: close, reject) -->
    <svg viewBox="0 0 24 24" id="cancel">
        <path transform="translate(0 24) scale(0.025)" d="M332.15-301.39 480-449.23l147.85 147.84 30.76-30.76L510.77-480l147.84-147.85-30.76-30.76L480-510.77 332.15-658.61l-30.76 30.76L449.23-480 301.39-332.15l30.76 30.76Zm148.01 198.31q-77.6 0-146.33-29.82-68.72-29.83-119.96-81.1-51.23-51.27-81.01-119.8-29.78-68.53-29.78-146.04 0-78.22 29.82-147.13 29.83-68.92 81.1-119.91 51.27-50.98 119.8-80.51 68.53-29.53 146.04-29.53 78.22 0 147.14 29.69 68.92 29.69 119.9 80.6 50.98 50.9 80.51 119.62 29.53 68.72 29.53 146.85 0 77.6-29.57 146.33-29.58 68.72-80.6 119.96-51.02 51.23-119.74 81.01-68.72 29.78-146.85 29.78Zm-.21-43.84q138.63 0 235.88-97.52 97.25-97.51 97.25-235.51 0-138.63-97.21-235.88-97.2-97.25-235.82-97.25-138.01 0-235.57 97.21-97.56 97.2-97.56 235.82 0 138.01 97.52 235.57 97.51 97.56 235.51 97.56ZM480-480Z"/>
    </svg>

    <!-- pause_circle - Pause LOT (mockup key: pause) -->
    <svg viewBox="0 0 24 24" id="pause_circle">
        <path transform="translate(0 24) scale(0.025)" d="M385.19-331.23h43.85v-297.54h-43.85v297.54Zm146.46 0h43.85v-297.54h-43.85v297.54Zm-51.49 228.15q-77.6 0-146.33-29.82-68.72-29.83-119.96-81.1-51.23-51.27-81.01-119.8-29.78-68.53-29.78-146.04 0-78.22 29.82-147.13 29.83-68.92 81.1-119.91 51.27-50.98 119.8-80.51 68.53-29.53 146.04-29.53 78.22 0 147.14 29.69 68.92 29.69 119.9 80.6 50.98 50.9 80.51 119.62 29.53 68.72 29.53 146.85 0 77.6-29.57 146.33-29.58 68.72-80.6 119.96-51.02 51.23-119.74 81.01-68.72 29.78-146.85 29.78Zm-.21-43.84q138.63 0 235.88-97.52 97.25-97.51 97.25-235.51 0-138.63-97.21-235.88-97.2-97.25-235.82-97.25-138.01 0-235.57 97.21-97.56 97.2-97.56 235.82 0 138.01 97.52 235.57 97.51 97.56 235.51 97.56ZM480-480Z"/>
    </svg>

    <!-- search - Search -->
    <svg viewBox="0 0 24 24" id="search">
        <path transform="translate(0 24) scale(0.025)" d="M789.08-140.5 530.87-398.81q-29.45 26.92-69.4 40.9-39.96 13.99-81.35 13.99-101.24 0-171.12-69.89-69.88-69.88-69.88-169.46 0-99.58 69.5-169.54 69.51-69.96 169.68-69.96 100.18 0 170.11 69.92 69.94 69.92 69.94 169.56 0 41.67-14.58 81.33-14.58 39.65-41.31 71.81l258.92 256.96-32.3 32.69ZM379.35-387.77q81.45 0 138.3-56.79 56.85-56.8 56.85-138.87 0-82.07-56.85-138.78Q460.8-778.92 379-778.92q-82.31 0-139.18 56.79-56.86 56.79-56.86 138.87 0 82.07 56.92 138.78 56.92 56.71 139.47 56.71Z"/>
    </svg>

    <!-- lock - Auth / lock -->
    <svg viewBox="0 0 24 24" id="lock">
        <path transform="translate(0 24) scale(0.025)" d="M238.92-103.08q-22.96 0-39.55-16.59-16.6-16.6-16.6-39.56v-398.31q0-23.26 16.6-39.7 16.59-16.45 39.55-16.45h70.54v-91.17q0-71.26 49.71-120.89 49.7-49.63 121-49.63 71.29 0 120.83 49.65 49.54 49.66 49.54 121.1v90.94h70.54q22.96 0 39.55 16.45 16.6 16.44 16.6 39.7v398.31q0 22.96-16.6 39.56-16.59 16.59-39.55 16.59H238.92Zm0-43.84h482.16q5.38 0 8.84-3.47 3.46-3.46 3.46-8.84v-398.31q0-5.38-3.46-8.84-3.46-3.47-8.84-3.47H238.92q-5.38 0-8.84 3.47-3.46 3.46-3.46 8.84v398.31q0 5.38 3.46 8.84 3.46 3.47 8.84 3.47Zm241.13-144.62q27.56 0 47.18-19.22 19.62-19.23 19.62-46.28 0-26.11-19.67-47.15-19.68-21.04-47.23-21.04-27.56 0-47.18 20.93-19.62 20.92-19.62 47.53t19.67 45.92q19.68 19.31 47.23 19.31ZM353.31-613.69h253.38v-91.51q0-52.88-36.59-89.61t-89.86-36.73q-53.28 0-90.11 36.69-36.82 36.68-36.82 89.85v91.31ZM226.62-146.92v-422.93 422.93Z"/>
    </svg>

    <!-- add_circle - Add / create (mockup key: add) -->
    <svg viewBox="0 0 24 24" id="add_circle">
        <path transform="translate(0 24) scale(0.025)" d="M460.46-291.54h43.85v-163.54h164.15v-43.84H504.31v-169.54h-43.85v169.54H291.54v43.84h168.92v163.54Zm19.96 188.46q-78.33 0-146.82-29.82-68.49-29.83-119.73-81.1-51.23-51.27-81.01-119.64-29.78-68.37-29.78-146.7 0-78.04 29.82-146.79 29.83-68.76 81.1-119.75 51.27-50.98 119.64-80.51 68.37-29.53 146.7-29.53 78.04 0 146.8 29.69t119.74 80.6q50.98 50.9 80.51 119.62 29.53 68.72 29.53 146.59 0 78.33-29.57 146.82-29.58 68.49-80.6 119.54-51.02 51.06-119.74 81.02-68.72 29.96-146.59 29.96Zm.03-43.84q138.13 0 235.38-97.52 97.25-97.51 97.25-236.01 0-138.13-97.02-235.38t-236.01-97.25q-138.01 0-235.57 97.02t-97.56 236.01q0 138.01 97.52 235.57 97.51 97.56 236.01 97.56ZM480-480Z"/>
    </svg>

    <!-- edit - Edit -->
    <svg viewBox="0 0 24 24" id="edit">
        <path transform="translate(0 24) scale(0.025)" d="M186.92-186.92h39.7l468.84-468.43-39.5-39.5-469.04 468.04v39.89Zm-43.84 43.84v-101.15l559.46-560.12q5.9-4.99 14.09-8.48 8.18-3.48 17.1-3.48 8.23 0 16.19 3.2 7.96 3.19 15.04 8.76l40 40.2q5.69 6.19 8.83 14.44 3.13 8.26 3.13 16.09 0 8.93-3.24 17.14t-8.75 14.09l-560.7 559.31H143.08Zm629.77-591.11-38.04-37.66 38.04 37.66Zm-96.98 59.32-19.91-19.98 39.5 39.5-19.59-19.52Z"/>
    </svg>

    <!-- refresh - Refresh / reload -->
    <svg viewBox="0 0 24 24" id="refresh">
        <path transform="translate(0 24) scale(0.025)" d="M482.07-182.77q-124.08 0-210.82-86.9-86.75-86.9-86.75-210.38 0-123.49 86.75-210.33 86.74-86.85 210.79-86.85 80.92 0 144.09 35.5 63.18 35.5 106.22 97.73v-133.23h43.84v222.15H554.04v-43.84H710.5q-36.3-61-94.61-97.73-58.32-36.73-133.81-36.73-106.68 0-180.21 73.69-73.52 73.69-73.52 179.88t73.44 179.69q73.44 73.5 180.16 73.5 80.86 0 147.57-46.23t93.78-122.38h45.2q-27.54 95.31-107.12 153.88-79.59 58.58-179.31 58.58Z"/>
    </svg>


    <!-- ===== Sections ===== -->

    <!-- factory - Plant / factory (mockup key: plant) -->
    <svg viewBox="0 0 24 24" id="factory">
        <path transform="translate(0 24) scale(0.025)" d="M101.12-101.12v-445.8l238.46-101.46v78.73l200-80.62v110.69h320v438.46H101.12Zm43.84-43.84h670.77v-350.56h-320v-89.83l-200 80v-78.42l-150.77 66.42v372.39Zm308.08-105.39h54.61v-140h-54.61v140Zm-160 0h54.61v-140h-54.61v140Zm320 0h54.61v-140h-54.61v140Zm246.54-289.23H712.92l40.5-303.49h68.46l37.7 303.49ZM144.96-144.96h670.77-670.77Z"/>
    </svg>

    <!-- workspaces - Production area / workspaces (mockup key: area) -->
    <svg viewBox="0 0 24 24" id="workspaces">
        <path transform="translate(0 24) scale(0.025)" d="M233.77-137.85q-56.46 0-96.04-39.41-39.58-39.41-39.58-96.55 0-56.11 39.42-95.69 39.41-39.58 96.55-39.58 56.11 0 95.69 39.58 39.57 39.58 39.57 96.04 0 56.46-39.57 96.04-39.58 39.57-96.04 39.57Zm493.27 0q-56.27 0-96.04-39.41t-39.77-96.55q0-56.11 39.61-95.69 39.6-39.58 96.54-39.58 55.93 0 95.5 39.58 39.58 39.58 39.58 96.04 0 56.46-39.58 96.04-39.57 39.57-95.84 39.57Zm-493-43.84q37.52 0 64.51-26.84 26.99-26.84 26.99-65.11 0-37.56-26.91-64.58-26.92-27.01-64.69-27.01-37.96 0-64.95 26.94Q142-311.35 142-273.54q0 37.82 26.81 64.83 26.81 27.02 65.23 27.02Zm493.08 0q37.52 0 64.51-26.84 26.99-26.84 26.99-65.11 0-37.56-26.92-64.58-26.91-27.01-64.49-27.01-37.77 0-64.95 26.94t-27.18 64.75q0 37.82 26.98 64.83 26.98 27.02 65.06 27.02ZM480.81-551.23q-56.42 0-96.19-39.77-39.77-39.77-39.77-96.19 0-56.42 39.77-96t96.19-39.58q56.42 0 96 39.58 39.57 39.58 39.57 96T576.81-591q-39.58 39.77-96 39.77Zm-.27-43.85q38.23 0 65.11-26.98 26.89-26.98 26.89-64.86 0-38.23-26.81-65.12-26.81-26.88-64.85-26.88-38.03 0-65.11 26.81t-27.08 64.84q0 38.04 26.98 65.12 26.98 27.07 64.87 27.07Zm.08-91.92Zm246.57 413.19Zm-493.07 0Z"/>
    </svg>

    <!-- account_balance - Enterprise (ISA-95) (mockup key: enterprise) -->
    <svg viewBox="0 0 24 24" id="account_balance">
        <path transform="translate(0 24) scale(0.025)" d="M242-251.39v-345.38h43.85v345.38H242Zm219.08 0v-345.38h43.84v345.38h-43.84Zm-346.62 107.7v-43.85h731.08v43.85H114.46Zm559.69-107.7v-345.38H718v345.38h-43.85ZM114.46-660.62V-696L480-894.92 845.54-696v35.38H114.46Zm106.69-43.84h517.7-517.7Zm0 0h517.7L480-844.69 221.15-704.46Z"/>
    </svg>

    <!-- settings - Parts / settings (mockup key: parts) -->
    <svg viewBox="0 0 24 24" id="settings">
        <path transform="translate(0 24) scale(0.025)" d="m402.73-103.08-18.08-119.28q-21.03-6.53-45.19-20.37-24.15-13.85-41.48-28.77l-110.25 50.31-78.38-138.85 100.46-73.57q-2.19-10.71-2.98-22.68-.79-11.98-.79-23.33 0-9.84.79-22.46.79-12.61 2.79-24.92l-100.27-74.35 78.38-137.38 110.85 49.85q17.5-14.23 40.57-27.73 23.08-13.5 45.12-20.2l18.46-120.42h155.23l18.08 119.69q21.69 7.96 44.02 20.54 22.32 12.58 40.02 28.12l113.27-49.85 77.99 137.38-102.92 74.54q2.08 11.89 3.12 23.81 1.04 11.92 1.04 22.9 0 10.6-1.14 22.36-1.13 11.75-3.21 24.25l102.23 73.45-78.38 138.85-112-51q-18.05 15.74-39.57 29.02-21.51 13.28-44.47 20.4l-18.08 119.69H402.73Zm34.73-43.84h84.67l14.99-112.12q31.54-8.06 58.41-23.38 26.86-15.32 51.93-39.89l104.96 45.54 39.5-70.2-92.77-68.57q3.5-17.77 6.16-33.4 2.65-15.63 2.65-31.28 0-16.59-2.09-31.72-2.1-15.14-6.72-31.75L792.69-613l-39.19-70.54L647.27-638q-21.15-23.08-50.67-41.15-29.52-18.08-59.95-22.5l-13.64-111.73h-85.86L424.42-701.8q-34.23 7.07-61.17 22.4-26.94 15.32-51.71 41.02l-104.35-45.16L167-613l92.65 67.35q-4.38 16.15-6.69 32.4-2.31 16.25-2.31 33.1 0 17.03 2.06 32.71 2.06 15.67 6.06 32.21L167-347.31l39.97 70.54 104.38-44.85q24.11 24.89 51.8 40.18 27.7 15.29 60.8 23.29l13.51 111.23Zm41.1-221.93q46.36 0 78.69-32.36t32.33-78.81q0-46.44-32.36-78.79-32.36-32.34-78.8-32.34-46.77 0-78.96 32.36-32.19 32.36-32.19 78.81 0 46.44 32.19 78.79 32.19 32.34 79.1 32.34Zm1.63-111.65Z"/>
    </svg>

    <!-- tune - System config (mockup key: system) -->
    <svg viewBox="0 0 24 24" id="tune">
        <path transform="translate(0 24) scale(0.025)" d="M440.35-132.46v-207.27h43.84v82.12h343.85v43.84H484.19v81.31h-43.84Zm-308.2-81.31v-43.84H356.5v43.84H132.15Zm180.5-163.65v-80.81h-180.5v-43.85h180.5v-82.53h43.85v207.19h-43.85Zm127.7-80.81v-43.85h387.69v43.85H440.35Zm163.34-163.23v-206.89h43.85v81.31h180.5v43.85h-180.5v81.73h-43.85Zm-471.54-81.73v-43.85h387.7v43.85h-387.7Z"/>
    </svg>

    <!-- inventory_2 - Item Master (mockup key: item) -->
    <svg viewBox="0 0 24 24" id="inventory_2">
        <path transform="translate(0 24) scale(0.025)" d="M199.23-103.08q-22.96 0-39.56-16.59-16.59-16.6-16.59-39.56V-627q-17-5.12-28.5-20.06-11.5-14.95-11.5-34.48v-119.23q0-22.96 16.59-39.56 16.6-16.59 39.56-16.59h641.54q22.96 0 39.56 16.59 16.59 16.6 16.59 39.56v119.23q0 19.53-11.5 34.48-11.5 14.94-28.5 20.06v467.77q0 22.96-16.59 39.56-16.6 16.59-39.56 16.59H199.23Zm-12.61-522.31v462.7q0 6.15 4.42 10.19 4.42 4.04 10.96 4.04h559.08q5.38 0 8.84-3.46 3.46-3.47 3.46-8.85v-464.62H186.62Zm-25.85-43.84h638.46q5.38 0 8.85-3.46 3.46-3.46 3.46-8.85v-117.69q0-5.38-3.46-8.85-3.47-3.46-8.85-3.46H160.77q-5.38 0-8.85 3.46-3.46 3.47-3.46 8.85v117.69q0 5.39 3.46 8.85 3.47 3.46 8.85 3.46Zm207.85 229.88h222.76V-480H368.62v40.65ZM480-387.27Z"/>
    </svg>

    <!-- package_2 - Container -->
    <svg viewBox="0 0 24 24" id="package_2">
        <path transform="translate(0 24) scale(0.025)" d="M458.42-157.35v-310.38l-271.8-156.66v303.47q0 3.07 1.53 5.77 1.54 2.69 4.62 4.61l265.65 153.19Zm43.85 0 264.96-153.19q3.08-1.92 4.62-4.61 1.53-2.7 1.53-5.77v-304.27L502.27-467.54v310.19Zm-50 47.27L171.19-272.46q-14-7.81-21.21-21.07-7.21-13.26-7.21-27.78v-317.88q0-14.26 7.21-27.55 7.21-13.3 21.21-21.3l281.08-161.88q13.26-8 27.71-8 14.44 0 28.44 8L789.5-688.04q13.31 8 20.52 21.3 7.21 13.29 7.21 27.55v317.69q0 15.11-7.21 28.33-7.21 13.21-20.52 20.52L508.42-110.08q-14 8-28.44 8-14.45 0-27.71-8Zm183.58-485.57 112.34-65-262.04-151.2q-3.07-1.53-6.15-1.53-3.08 0-6.15 1.53l-104.93 60.27 266.93 155.93ZM480-504.31l112.69-66.42-268.11-154.65-112.7 64.73L480-504.31Z"/>
    </svg>

    <!-- fact_check - Operation Templates (mockup key: list) -->
    <svg viewBox="0 0 24 24" id="fact_check">
        <path transform="translate(0 24) scale(0.025)" d="M153.46-142.77q-22.61 0-39.34-16.73-16.73-16.73-16.73-39.33v-562.34q0-22.6 16.73-39.33 16.73-16.73 39.34-16.73h653.08q22.61 0 39.34 16.73 16.73 16.73 16.73 39.33v562.34q0 22.6-16.73 39.33-16.73 16.73-39.34 16.73H153.46Zm.08-43.85h652.92q4.62 0 8.46-3.84 3.85-3.85 3.85-8.46v-562.16q0-4.61-3.85-8.46-3.84-3.84-8.46-3.84H153.54q-4.62 0-8.46 3.84-3.85 3.85-3.85 8.46v562.16q0 4.61 3.85 8.46 3.84 3.84 8.46 3.84ZM217.69-290h176.92v-60H217.69v60ZM582-375.77l180.69-180.69-42.77-42.77L582-460.31l-57-57-41.77 42.77L582-375.77ZM217.69-450h176.92v-60H217.69v60Zm0-160h176.92v-60H217.69v60Zm-76.46 423.38v-586.76 586.76Z"/>
    </svg>

    <!-- analytics - Reports / trends (mockup key: reports) -->
    <svg viewBox="0 0 24 24" id="analytics">
        <path transform="translate(0 24) scale(0.025)" d="M299.31-289.31h43.84v-192.31h-43.84v192.31Zm317.54 0h43.84v-402.15h-43.84v402.15Zm-158.62 0h43.85v-107.54h-43.85v107.54Zm0-192.31h43.85v-63.84h-43.85v63.84Zm-259.4 338.85q-22.6 0-39.33-16.73-16.73-16.73-16.73-39.33v-562.34q0-22.6 16.73-39.33 16.73-16.73 39.33-16.73h562.34q22.6 0 39.33 16.73 16.73 16.73 16.73 39.33v562.34q0 22.6-16.73 39.33-16.73 16.73-39.33 16.73H198.83Zm.09-43.85h562.16q4.61 0 8.46-3.84 3.84-3.85 3.84-8.46v-562.16q0-4.61-3.84-8.46-3.85-3.84-8.46-3.84H198.92q-4.61 0-8.46 3.84-3.84 3.85-3.84 8.46v562.16q0 4.61 3.84 8.46 3.85 3.84 8.46 3.84Zm-12.3-586.76v586.76-586.76Z"/>
    </svg>

    <!-- manage_history - Audit log (mockup key: audit) -->
    <svg viewBox="0 0 24 24" id="manage_history">
        <path transform="translate(0 24) scale(0.025)" d="M179.66-626.62v-176.53h43.84v103.38q48.5-54.61 114.23-86.04 65.73-31.42 139.15-31.42 141.12 0 240.45 97.65 99.32 97.66 99.32 237.96 0 4.08-.34 8.39-.35 4.31-.16 7.81h-43.84q-.2-4.12.15-8.93.35-4.8.35-9.5 0-121.27-86.83-205.4-86.83-84.13-209.1-84.13-64.42 0-120.99 27.9-56.58 27.9-99.31 75.02h99.84v43.84H179.66Zm-36.7 156.47h43.85q4.23 117.3 86.21 199.34 81.98 82.04 198.71 84.12h8.54L505.15-145q-8.23 1.61-16.96 1.92-8.73.31-17.96.31-135-1.92-229.5-96.65t-97.77-230.73ZM568.5-365.04 459.73-472v-208.69h43.85v190.46l88.11 86.12-23.19 39.07ZM752.35-18.42l-8.16-58.08q-20.42-3.73-38.3-13.54-17.89-9.81-31.77-25.84l-49.7 11.69-16.38-27.39 42.08-37.61q-5.81-15.27-5.81-32.27 0-17 5.81-33.35l-42.85-38.3 17.15-28.16 50.08 13.16q13.89-15.35 31.58-25.06 17.69-9.71 38.11-14.33l8.16-58.08h36.3l7.77 58.08q20.89 4.62 38.83 14.81 17.94 10.19 31.94 25.35l50.93-13.16 16.38 28.54-42.92 38.31q4.73 16.73 4.73 33.15 0 16.42-4.73 30.15l43.69 38.77-16.39 27.39-51.69-12.46q-13.61 16.61-31.94 26.52-18.33 9.9-38.83 13.63l-7.77 58.08h-36.3Zm18.3-100.93q35.89 0 59.18-22.84 23.29-22.85 23.29-59.42 0-36.58-23.29-59.77-23.29-23.2-59.18-23.2-36.57 0-59.67 23.2-23.1 23.19-23.1 59.77 0 36.57 23.1 59.42 23.1 22.84 59.67 22.84Z"/>
    </svg>

    <!-- handyman - Tools (config) (mockup key: tools) -->
    <svg viewBox="0 0 24 24" id="handyman">
        <path transform="translate(0 24) scale(0.025)" d="M753.56-101q-6.14 0-10.7-2.25-4.55-2.25-8.67-6.37L502.54-341.27q-4.12-4.12-6.56-8.63-2.44-4.52-2.44-10.56 0-6.04 2.44-10.6t6.56-9.36l75.96-75.27q4.11-4.12 8.71-6.56 4.59-2.44 10.71-2.44 5.99 0 10.46 2.44 4.47 2.44 9.66 6.56L849-224.73q4.11 4.81 6.36 9.42 2.25 4.6 2.25 10.75 0 6.14-2.25 10.69-2.25 4.56-6.36 8.68l-75.27 75.57q-4.81 4.12-9.42 6.37T753.56-101Zm.05-50.08 53.54-53.54-209.42-210.11-53.54 53.54 209.42 210.11ZM205.33-101.5q-6.14 0-11.1-1.75t-9.08-6.56l-74.96-74.58q-4.8-4.11-6.55-9.15-1.75-5.03-1.75-11.15t1.75-10.96q1.75-4.85 6.46-8.87l218.05-218.75h84.24L448.81-479 273.08-654.73h-57L103.35-767.46l87.57-88.27 113.43 113.42v57l175.03 175.04 129.89-129.19-75.85-75.85 51.04-51.73H481.08l-13.81-13.42 116.19-116.88 14.12 14.11v103.77l51.03-51.73 169.54 169.27q13.72 14 21.8 32.4 8.09 18.41 8.09 38.56 0 15.15-4.81 30.81-4.81 15.65-13.62 28.03l-83.46-83.46-56.38 56.39-49.69-49.69-196.81 197.49V-327L224.91-109.71q-4.02 4.71-8.73 6.46-4.7 1.75-10.85 1.75Zm.06-50.15 206.8-206.12v-54.04h-54.04L152.04-205l53.35 53.35Zm0 0L152.04-205l26.66 26.68 26.69 26.67Zm548.22.57 53.54-53.54-53.54 53.54Z"/>
    </svg>

    <!-- engineering - Maintenance (FUTURE) -->
    <svg viewBox="0 0 24 24" id="engineering">
        <path transform="translate(0 24) scale(0.025)" d="M61.77-138.62v-73.07q0-29.66 14.36-49.54t41.41-32.99q52.08-25.36 111.45-40.95 59.37-15.6 128.09-15.6 68.71 0 127.89 15.6 59.18 15.59 111.64 40.95 26.67 13.11 41.22 32.99 14.55 19.88 14.55 49.54v73.07H61.77Zm43.85-43.84h502.92v-29.53q0-16.74-9.81-27.07-9.81-10.32-23.26-16.54-41.49-19.21-95.27-35.27-53.78-16.05-123.09-16.05-69.32 0-123.35 16.09-54.03 16.1-95.09 35.25-13.44 6.2-23.25 16.52-9.8 10.33-9.8 27.07v29.53Zm251.42-247.23q-57.54 0-94.23-36.99-36.69-36.98-36.69-96.4h-9.43q-7.23 0-12.46-5.24T199-580.81q0-6.86 5.23-12.29 5.23-5.44 12.46-5.44h9.42q.38-33.19 15.21-60.17 14.83-26.98 42.36-47.75v38.2q0 5.93 3.96 9.79 3.96 3.86 9.82 3.86 6.54 0 10.04-3.81 3.5-3.81 3.5-9.6v-51.42q7.79-2.37 21.28-4.27 13.49-1.9 25.41-1.9 11.93 0 25.42 1.9 13.49 1.9 21.27 4.27v51.33q0 5.57 3.5 9.53 3.5 3.97 10.04 3.97 5.87 0 9.82-3.82 3.96-3.82 3.96-9.57v-38.46q27.91 20.77 41.74 47.75 13.83 26.98 14.6 60.08h9.42q7.23 0 12.46 5.44 5.23 5.43 5.23 12.3 0 7.25-5.23 12.49-5.23 5.25-12.46 5.25h-9.42q0 59.49-36.92 96.47-36.92 36.99-94.08 36.99Zm.04-43.85q40.07 0 63.69-24.23 23.61-24.23 23.61-63.08H269.77q0 38.85 23.61 63.08 23.62 24.23 63.7 24.23Zm300.85 108.92-1.15-28.61q-7.55-3.23-16.01-8.62-8.46-5.38-14.46-10.77l-26 13.62-18.62-27.92 25.62-17.46q-2-4.39-2.19-8.47-.2-4.07-.2-8.07 0-4.39.2-8.08.19-3.69 2.19-8.46l-25.62-17.85 18.62-27.92 26 13.61q6.81-5.69 14.8-10.76 8-5.08 15.41-8.62l1.18-28.23h35.02l1.56 28.23q7.4 3.49 15.42 8.59 8.03 5.1 14.84 10.79l25.61-13.61 19 27.92-25.61 17.85q2 4.77 2 8.46v16.15q0 4.08-2 8.47l25.61 17.46-19 27.92-25.61-13.62q-6 5.39-14.46 10.77-8.47 5.39-15.85 8.62l-1.38 28.61h-34.92Zm17.3-57.53q16.19 0 27.67-11.29t11.48-27.48q0-16.2-11.48-27.68t-27.67-11.48q-16.19 0-27.48 11.48t-11.29 27.68q0 16.19 11.29 27.48t27.48 11.29Zm88.18-163-5.54-30.83q-11.02-3.33-23.7-11.1T714.82-644l-37.28 14.23-16.31-28 30.54-23.08q-2-5.32-3.5-12.11-1.5-6.79-1.5-13.12 0-5.94 1.5-12.92 1.5-6.98 3.5-12.31L661.23-754l16.31-28 37.19 13.85q6.96-9.16 19.67-17.23 12.71-8.08 23.22-10.31l6-30.92h31.82l5.53 30.83q11.03 2.32 23.71 10.4 12.67 8.07 19.73 17.23l36.9-13.85 16.3 28-30.53 22.69q2 5.33 3.5 12.31t1.5 12.92q0 6.33-1.5 13.12-1.5 6.79-3.5 12.11l30.53 23.08-16.3 28L844.5-644q-7.35 9.15-20.05 16.92-12.71 7.77-23.22 11l-6 30.93h-31.82Zm16.2-62.54q25 0 41.5-16.5t16.5-41.89q0-25-16.5-41.5t-41.5-16.5q-25.38 0-41.88 16.5-16.5 16.5-16.5 41.5 0 25.39 16.5 41.89t41.88 16.5ZM357.08-182.46Z"/>
    </svg>

    <!-- verified - Quality -->
    <svg viewBox="0 0 24 24" id="verified">
        <path transform="translate(0 24) scale(0.025)" d="m355.44-88.77-70.9-121-139.69-28.31 15.07-137.77L70.62-480l89.3-103.55-15.07-137.3 139.88-28.63 70.58-121.75 124.63 56.94 124.62-56.94 71.9 121.62 139.08 28.69-15.46 137.38L889.38-480l-89.3 104.16 15.46 137.69-139.27 28.24-71.58 121.14-124.63-56.94-124.62 56.94Zm19.71-57.92L480-190.23l107.08 43.54 64.69-98.23 114.39-28.71-11.35-116.89L833.77-480l-78.96-90.73 11.35-117.28-114.39-27.07-65.92-98.23L480-769.77l-107.08-43.54-64.69 98.23-114.39 27.07 11.35 117.28L126.23-480l78.96 89.48-11.35 118.14 114.39 27.46 66.92 98.23ZM480-480Zm-42.31 119.92 210.92-209.3-33.3-29.77-177.38 176.38-92.62-95.92-33.92 33.31 126.3 125.3Z"/>
    </svg>

    <!-- local_shipping - Shipping -->
    <svg viewBox="0 0 24 24" id="local_shipping">
        <path transform="translate(0 24) scale(0.025)" d="M222.87-180.77q-45.04 0-77.24-32.25-32.21-32.25-32.21-77.9h-56.3v-430.21q0-22.64 16.63-39.37 16.63-16.73 39.52-16.73h555.84v156.15h93.47l141 188.31v141.85h-64.7q0 45.65-32.55 77.9-32.55 32.25-77.92 32.25-45.2 0-77.33-32.25-32.12-32.25-32.12-77.9H333.35q0 45.8-32.72 77.98-32.71 32.17-77.76 32.17Zm.17-43.85q27.42 0 46.94-19.17 19.52-19.17 19.52-46.94 0-27.77-19.47-46.94-19.46-19.18-46.65-19.18-27.77 0-46.94 19.18-19.17 19.17-19.17 46.94 0 27.77 19.17 46.94 19.17 19.17 46.6 19.17ZM100.96-334.77h21.14q12.13-28.65 39.58-47.44Q189.12-401 222.53-401q32.65 0 60.23 18.81 27.59 18.81 40.74 47.42h301.77v-398.61h-512q-4.81 0-8.56 3.84-3.75 3.85-3.75 8.46v386.31Zm627.62 110.15q27.42 0 46.94-19.17 19.52-19.17 19.52-46.94 0-27.77-19.47-46.94-19.47-19.18-46.65-19.18-27.77 0-46.94 19.18-19.17 19.17-19.17 46.94 0 27.77 19.17 46.94 19.17 19.17 46.6 19.17Zm-59.47-193.99h190.7L739.54-577.23h-70.43v158.62ZM363.42-526.46Z"/>
    </svg>

    <!-- videocam - Vision / camera (mockup key: vision) -->
    <svg viewBox="0 0 24 24" id="videocam">
        <path transform="translate(0 24) scale(0.025)" d="M169.66-182.77q-22.9 0-39.53-16.73-16.63-16.73-16.63-39.35v-482.3q0-22.62 16.63-39.35t39.53-16.73H652.1q21.87 0 38.86 16.73 17 16.73 17 39.42v208.77l139.23-139.23v342.69L707.96-448.08v209.16q0 22.69-17 39.42-16.99 16.73-38.86 16.73H169.66Zm0-43.85h482.15q5.19 0 8.75-3.46 3.56-3.46 3.56-8.84v-482.16q0-5.38-3.56-8.84t-8.75-3.46H169.66q-5.39 0-8.85 3.46t-3.46 8.84v482.16q0 5.38 3.46 8.84t8.85 3.46Zm-12.31 0v-506.76 506.76Z"/>
    </svg>

    <!-- report - Defect codes (mockup key: defects) -->
    <svg viewBox="0 0 24 24" id="report">
        <path transform="translate(0 24) scale(0.025)" d="M479.89-294q12.38 0 20.36-7.88 7.98-7.87 7.98-20.05 0-12.19-7.88-20.17-7.87-7.98-20.24-7.98-12.38 0-20.17 7.88-7.79 7.87-7.79 20.06 0 12.18 7.69 20.16 7.68 7.98 20.05 7.98Zm-21.47-126h43.85v-256.77h-43.85V-420ZM339.69-142.77 142.77-339.76v-280.55l196.99-196.92h280.55l196.92 196.99v280.55L620.24-142.77H339.69Zm18.54-43.85h244.3l170.85-171.61v-244.3L602.41-773.38H358.12l-171.5 170.97v244.29l171.61 171.5ZM480-480Z"/>
    </svg>

    <!-- calendar_month - Shift schedules (mockup key: schedule) -->
    <svg viewBox="0 0 24 24" id="calendar_month">
        <path transform="translate(0 24) scale(0.025)" d="M198.83-103.08q-22.6 0-39.33-16.73-16.73-16.73-16.73-39.33v-576.95q0-22.6 16.73-39.33 16.73-16.73 39.42-16.73h75.39v-70h48.84v70h315.23v-70h47.7v70h75q22.69 0 39.42 16.73t16.73 39.33v576.95q0 22.6-16.73 39.33-16.73 16.73-39.33 16.73H198.83Zm.09-43.84h562.16q4.61 0 8.46-3.85 3.84-3.85 3.84-8.46v-395.15H186.62v395.15q0 4.61 3.84 8.46 3.85 3.85 8.46 3.85Zm-12.3-451.31h586.76V-736q0-4.61-3.84-8.46-3.85-3.85-8.46-3.85H198.92q-4.61 0-8.46 3.85-3.84 3.85-3.84 8.46v137.77Zm0 0v-150.08 150.08Zm293.43 201q-14.65 0-24.89-10.19-10.24-10.18-10.24-24.83 0-14.65 10.19-24.89t24.84-10.24q14.65 0 24.89 10.18 10.24 10.19 10.24 24.84t-10.19 24.89q-10.19 10.24-24.84 10.24Zm-160 0q-14.65 0-24.89-10.19-10.24-10.18-10.24-24.83 0-14.65 10.19-24.89t24.84-10.24q14.65 0 24.89 10.18 10.24 10.19 10.24 24.84t-10.19 24.89q-10.19 10.24-24.84 10.24Zm320 0q-14.65 0-24.89-10.19-10.24-10.18-10.24-24.83 0-14.65 10.19-24.89t24.84-10.24q14.65 0 24.89 10.18 10.24 10.19 10.24 24.84t-10.19 24.89q-10.19 10.24-24.84 10.24Zm-160 156.92q-14.65 0-24.89-10.18-10.24-10.19-10.24-24.84t10.19-24.89q10.19-10.24 24.84-10.24t24.89 10.19q10.24 10.18 10.24 24.83 0 14.65-10.19 24.89t-24.84 10.24Zm-160 0q-14.65 0-24.89-10.18-10.24-10.19-10.24-24.84t10.19-24.89q10.19-10.24 24.84-10.24t24.89 10.19q10.24 10.18 10.24 24.83 0 14.65-10.19 24.89t-24.84 10.24Zm320 0q-14.65 0-24.89-10.18-10.24-10.19-10.24-24.84t10.19-24.89q10.19-10.24 24.84-10.24t24.89 10.19q10.24 10.18 10.24 24.83 0 14.65-10.19 24.89t-24.84 10.24Z"/>
    </svg>

    <!-- pending_actions - Operations / time (mockup key: ops) -->
    <svg viewBox="0 0 24 24" id="pending_actions">
        <path transform="translate(0 24) scale(0.025)" d="M698.24-103.08q-71.06 0-120.38-49.35-49.32-49.36-49.32-120.41 0-71.06 49.37-120.38 49.37-49.32 120.2-49.32 71.25 0 120.57 49.37Q868-343.79 868-272.97q0 71.25-49.36 120.57-49.35 49.32-120.4 49.32Zm60.18-75.04 24.46-24.61-73.7-72.46v-110.12h-34.49v122.37l83.73 84.82Zm-559.5 35.35q-22.96 0-39.55-16.6-16.6-16.59-16.6-39.55v-562.16q0-24.68 15.74-40.41 15.73-15.74 40.41-15.74h202.62q4.77-28.73 26.69-48.06 21.92-19.32 51.77-19.32 30 0 51.59 19.32 21.6 19.33 27.06 48.06h202.43q24.68 0 40.41 15.74 15.74 15.73 15.74 40.41v286.2q-11.62-5.12-21.78-9.2-10.17-4.09-22.07-7.69v-269.31q0-4.61-3.84-8.46-3.85-3.84-8.46-3.84h-71.54v80.03H270.46v-80.03h-71.54q-4.61 0-8.46 3.84-3.84 3.85-3.84 8.46v562.16q0 5.38 3.46 8.84t8.84 3.46h282.89q3.84 11.54 8.71 21.62 4.87 10.08 12.56 22.23H198.92ZM480.05-770q14.8 0 25.24-10.19 10.44-10.19 10.44-25.19 0-15-10.35-25.2-10.34-10.19-25.28-10.19-14.95 0-25.04 10.27-10.1 10.28-10.1 24.87 0 15.16 10.15 25.4Q465.26-770 480.05-770Z"/>
    </svg>

    <!-- group - Users (mockup key: user) -->
    <svg viewBox="0 0 24 24" id="group">
        <path transform="translate(0 24) scale(0.025)" d="M75.12-191.69v-74.08q0-31.41 15.83-55.15 15.83-23.75 45.16-36.52 64.66-28.44 117.64-42.44 52.98-14 118.6-14 65.61 0 118.02 14 52.4 14 117.62 42.38 29 12.86 45.2 36.6 16.19 23.73 16.19 55.13v74.08H75.12Zm659.53 0v-72.62q0-52.88-25.06-88.31-25.07-35.42-64.67-57.8 52.62 8.31 99.76 21.3 47.14 13 79.3 28.63 27.56 15.99 44.58 40.47 17.01 24.49 17.01 55.59v72.74H734.65Zm-362.3-300.93q-57.66 0-94.35-36.69t-36.69-94.34q0-57.66 36.69-94.16t94.35-36.5q57.65 0 94.15 36.5 36.5 36.5 36.5 94.16 0 57.65-36.5 94.34-36.5 36.69-94.15 36.69ZM682.77-623.9q0 57.29-36.5 94.04-36.5 36.74-94.29 36.74-6.71 0-13.84-.76-7.12-.77-13.68-3.1 21.64-22.82 32.48-54.99 10.83-32.16 10.83-71.57 0-39.27-11.39-69.94-11.38-30.68-31.92-57.21 5.77-1.47 13.58-2.54 7.81-1.08 13.88-1.08 57.85 0 94.35 36.67 36.5 36.66 36.5 93.74ZM118.96-235.54h506.58v-30.05q0-16.37-9.37-30.22-9.36-13.84-25.75-22.84-63.48-29.5-110.47-40.45-46.99-10.94-107.27-10.94-60.44 0-108.16 10.94-47.71 10.95-110.67 40.45-17.08 9-25.98 22.97-8.91 13.98-8.91 29.91v30.23Zm253.13-300.92q37.72 0 62.39-24.61t24.67-62.33q0-37.71-24.61-62.39-24.61-24.67-62.32-24.67-37.72 0-62.39 24.61-24.68 24.61-24.68 62.33 0 37.71 24.62 62.39 24.61 24.67 62.32 24.67Zm.06 300.92Zm0-387.92Z"/>
    </svg>

    <!-- content_cut - Trim shop (mockup key: trim) -->
    <svg viewBox="0 0 24 24" id="content_cut">
        <path transform="translate(0 24) scale(0.025)" d="M783-127.23 482.15-428.08 355.61-301.04q10.62 16.42 13.89 32.26 3.27 15.83 3.27 35.17 0 58.29-39.4 97.64-39.39 39.35-97.84 39.35t-97.91-39.43q-39.47-39.43-39.47-97.85 0-58.41 39.36-97.87 39.35-39.46 97.64-39.46 18.72 0 35.67 5 16.95 5 34.84 15l125.49-125.92-127.11-127.47q-16.66 8.39-33.41 11.97-16.76 3.57-35.48 3.57-58.29 0-97.64-39.39-39.36-39.4-39.36-97.85 0-58.45 39.44-97.91 39.43-39.46 97.84-39.46 58.42 0 97.88 39.35 39.46 39.35 39.46 97.64 0 19.34-3.08 35.98-3.08 16.64-11.84 31.57l504.61 504.69v27.23H783ZM590.77-531.54l-53.23-53.23L783-830.23h79.46v26.61L590.77-531.54ZM235.46-632.92q39 0 66.23-27.23 27.23-27.23 27.23-66.23t-27.23-66.24q-27.23-27.23-66.23-27.23t-66.23 27.23Q142-765.38 142-726.38t27.23 66.23q27.23 27.23 66.23 27.23Zm248.62 164.23q3.11 0 5.94-2.64 2.83-2.63 2.83-6.13 0-3.12-2.83-5.94-2.83-2.83-5.94-2.83-3.5 0-6.14 2.83-2.63 2.82-2.63 5.94 0 3.5 2.63 6.13 2.64 2.64 6.14 2.64ZM235.46-140.46q39 0 66.23-27.23 27.23-27.23 27.23-66.23t-27.23-66.23q-27.23-27.24-66.23-27.24t-66.23 27.24Q142-272.92 142-233.92t27.23 66.23q27.23 27.23 66.23 27.23Z"/>
    </svg>

    <!-- qr_code_scanner - Barcode / scan (mockup key: qr) -->
    <svg viewBox="0 0 24 24" id="qr_code_scanner">
        <path transform="translate(0 24) scale(0.025)" d="M103.08-697.38v-159.54h159.54v43.84h-115.7v115.7h-43.84Zm0 594.3v-159.54h43.84v115.7h115.7v43.84H103.08Zm594.3 0v-43.84h115.7v-115.7h43.84v159.54H697.38Zm115.7-594.3v-115.7h-115.7v-43.84h159.54v159.54h-43.84ZM692.69-266.31h55.54v55.54h-55.54v-55.54Zm0-111.07h55.54v55.53h-55.54v-55.53Zm-55.15 55.53h55.15v55.54h-55.15v-55.54ZM582-266.31h55.54v55.54H582v-55.54Zm-55.54-55.54H582v55.54h-55.54v-55.54Zm111.08-111.07h55.15v55.54h-55.15v-55.54ZM582-377.38h55.54v55.53H582v-55.53Zm-55.54-55.54H582v55.54h-55.54v-55.54Zm221.77-316.31v222.15H526.46v-222.15h221.77ZM432.92-432.92v222.15H210.77v-222.15h222.15Zm0-316.31v222.15H210.77v-222.15h222.15Zm-39.15 499v-143.54H250.23v143.54h143.54Zm0-316v-143.54H250.23v143.54h143.54Zm315 0v-143.54H565.62v143.54h143.15Z"/>
    </svg>


    <!-- ===== Status ===== -->

    <!-- warning - Warning -->
    <svg viewBox="0 0 24 24" id="warning">
        <path transform="translate(0 24) scale(0.025)" d="M78.62-142.77 480-835.69l401.38 692.92H78.62Zm76.15-43.85h650.46L480-748 154.77-186.62ZM482.98-247q10.64 0 17.44-6.94 6.81-6.93 6.81-17.57t-6.94-17.45q-6.93-6.81-17.57-6.81t-17.45 6.94q-6.81 6.94-6.81 17.57 0 10.64 6.94 17.45 6.94 6.81 17.58 6.81Zm-21.9-96.38h43.84v-216.93h-43.84v216.93ZM480-467.31Z"/>
    </svg>

    <!-- local_fire_department - Hot / urgent (mockup key: fire) -->
    <svg viewBox="0 0 24 24" id="local_fire_department">
        <path transform="translate(0 24) scale(0.025)" d="M224.96-400.02q0 68.83 34.64 128.02 34.63 59.19 95.21 92.92-7.19-14.15-10.44-29.07-3.25-14.93-3.25-29.85 0-27.32 10.4-51.93t30.33-44.22L480-431.19l98.87 96.87q19.59 19.78 30.15 44.39 10.56 24.61 10.56 51.93 0 14.99-3.6 29.85-3.6 14.86-10.1 29.07 59.89-33.73 94.87-92.87Q735.73-331.1 735.73-400q0-52.78-22.09-102.79-22.09-50.01-62.91-91.21-21.11 14.52-44.17 22.39-23.06 7.88-45.56 7.88-60.77 0-102.29-41.28-41.51-41.28-43.04-104.76v-14.61q-44.25 33.11-79.82 72.27-35.58 39.15-60.29 81.26-24.71 42.12-37.66 85.61-12.94 43.49-12.94 85.22ZM480-369.73l-67.49 67.07Q399-289.04 391.98-272.7q-7.02 16.35-7.02 34.89 0 38.81 27.64 65.83 27.63 27.02 67.52 27.02 39.88 0 67.75-27.11 27.86-27.11 27.86-65.96 0-18.93-7.12-35.55-7.11-16.63-20.84-29.19L480-369.73ZM459.58-803v95q0 42.58 29.36 71.5t71.87 28.92q18.38 0 35.44-6.82 17.06-6.83 30.98-20.79l17.5-16.96q62.69 41.11 98.77 108.13t36.08 143.94q0 124.92-87.24 211.94t-212.25 87.02q-125.01 0-211.99-87.02T181.12-400q0-114.38 74.48-223.56Q330.08-732.73 459.58-803Z"/>
    </svg>

</svg>
